<svg xmlns="http://www.w3.org/2000/svg" aria-labelledby="kz-title" class="no-lazyload" clip-rule="evenodd" fill-rule="evenodd" id="kaizen-logo-main" role="img" stroke-linejoin="round" stroke-miterlimit="2" viewBox="0 0 136 38" xml:space="preserve"><title id="kz-title">Kaizen</title><path d="M48.1 1.1h5V28h-5z"></path><path d="M57.1 1.1h20.7v2.4L63.9 23.2h13.9L74.4 28H56.8v-2.9L70.4 5.8H57.1V1.1ZM97.2 28H80.8V1.1H101L97.2 6H85.9v6.2h14.5l-3.8 4.7H85.9V23H101l-3.8 5ZM121.8 1h5.1v27h-3.1L109.6 9.8V28h-5.1V1.1h4.1l13.2 16.7V1ZM10.6 14.1l11.5-13h-5.8L6.1 12.5V1.1H1V28h5.1V16.1l1.3 2.1H13l-2.4-4.1ZM34.8 1.1 32.1 7 37 18.2h-9.8l-2.1 4.7H39l2.3 5.1h5.5l-12-26.9Z" fill-rule="nonzero"></path><path d="M29.2 1.1 17.8 26.4 13 18.2H7.4L19 36.6 34.8 1.1h-5.6Z" fill="#0070f0" fill-rule="nonzero"></path><path d="M131.99957 1.00015c1.38 0 2.5 1.12 2.5 2.5s-1.12 2.5-2.5 2.5c-1.379 0-2.5-1.12-2.5-2.5s1.121-2.5 2.5-2.5Zm0 .5c-1.103 0-2 .896-2 2s.897 2 2 2c1.104 0 2-.896 2-2s-.896-2-2-2Zm-.825 3.253v-2.506h.873c.224 0 .383.023.479.068.096.045.174.123.236.234.061.111.092.244.092.399 0 .196-.047.354-.141.473-.094.12-.228.195-.401.226.089.064.163.133.221.209.058.076.137.212.237.408l.25.489h-.495l-.3-.546c-.108-.197-.182-.32-.22-.37-.039-.049-.08-.083-.123-.102-.044-.019-.113-.028-.209-.028h-.085v1.046h-.414Zm.414-1.446h.307c.188 0 .308-.009.359-.025.051-.017.093-.05.125-.1s.048-.117.048-.2c0-.08-.016-.144-.048-.192-.032-.049-.075-.082-.13-.1-.039-.013-.151-.019-.337-.019h-.324v.636Z"></path></svg>